<?xml version="1.0" encoding="UTF-8"?>
<svg id="Outline" xmlns="http://www.w3.org/2000/svg" version="1.1" viewBox="0 0 64 64">
  <!-- Generator: Adobe Illustrator 29.5.1, SVG Export Plug-In . SVG Version: 2.1.0 Build 141)  -->
  <path d="M52.14,18.4c-1-2.63-3.35-4.44-6.11-4.78-.46-3.72-3.64-6.62-7.48-6.62-2.88,0-5.38,1.61-6.65,3.98-.99-.46-2.07-.71-3.17-.71-1.82,0-3.56.67-4.92,1.84-1.34-1.15-3.06-1.84-4.9-1.84-4.16,0-7.55,3.39-7.55,7.55,0,.27.02.54.05.8-2.66,1.21-4.41,3.85-4.41,6.83,0,4.16,3.39,7.55,7.55,7.55h1.45v11c0,1.65,1.35,3,3,3h2.05c.51,5.6,5.22,10,10.95,10s10.44-4.4,10.95-10h2.05c1.65,0,3-1.35,3-3v-11h1.45c4.16,0,7.55-3.39,7.55-7.55,0-3.17-1.93-5.94-4.86-7.05ZM23,46c0-.8,1.53-1.85,4.13-2.47-.08.82-.13,1.65-.13,2.47s.05,1.65.13,2.47c-2.6-.62-4.13-1.67-4.13-2.47ZM23.64,49.32c1.07.55,2.37.96,3.8,1.24.28,1.43.69,2.73,1.24,3.8-2.29-.92-4.12-2.75-5.04-5.04ZM27.44,41.44c-1.43.28-2.73.69-3.8,1.24.92-2.29,2.75-4.12,5.04-5.04-.55,1.07-.96,2.37-1.24,3.8ZM32,55c-.8,0-1.85-1.53-2.47-4.13.82.08,1.65.13,2.47.13s1.65-.05,2.47-.13c-.62,2.6-1.67,4.13-2.47,4.13ZM34.83,48.83c-.87.11-1.81.17-2.83.17s-1.96-.06-2.83-.17c-.11-.87-.17-1.81-.17-2.83s.06-1.96.17-2.83c.87-.11,1.81-.17,2.83-.17s1.96.06,2.83.17c.11.87.17,1.81.17,2.83s-.06,1.96-.17,2.83ZM29.53,41.13c.62-2.6,1.67-4.13,2.47-4.13s1.85,1.53,2.47,4.13c-.82-.08-1.65-.13-2.47-.13s-1.65.05-2.47.13ZM35.32,54.36c.55-1.07.96-2.37,1.24-3.8,1.43-.28,2.73-.69,3.8-1.24-.92,2.29-2.75,4.12-5.04,5.04ZM35.32,37.64c2.29.92,4.12,2.75,5.04,5.04-1.07-.55-2.37-.96-3.8-1.24-.28-1.43-.69-2.73-1.24-3.8ZM36.87,48.47c.08-.82.13-1.65.13-2.47s-.05-1.65-.13-2.47c2.6.62,4.13,1.67,4.13,2.47s-1.53,1.85-4.13,2.47ZM49.45,31h-20.45c-.55,0-1,.45-1,1s.45,1,1,1h17v11c0,.55-.45,1-1,1h-2.05c-.51-5.6-5.22-10-10.95-10s-10.44,4.4-10.95,10h-2.05c-.55,0-1-.45-1-1v-11h3c.55,0,1-.45,1-1s-.45-1-1-1h-6.45c-3.06,0-5.55-2.49-5.55-5.55,0-2.06,1.13-3.9,2.9-4.85.32.82.79,1.58,1.39,2.25.19.22.469.33.739.33.845,0,1.309-1.024.751-1.66-.91-1.02-1.42-2.33-1.42-3.7,0-3.06,2.49-5.55,5.55-5.55,2.35,0,4.45,1.49,5.23,3.7.18.52.76.79,1.28.61.52-.18.79-.76.6-1.28-.21-.61-.52-1.17-.88-1.7,1-.85,2.27-1.33,3.59-1.33.86,0,1.7.21,2.47.59-.13.54-.2,1.11-.2,1.69,0,.55.45,1,1,1s1-.45,1-1c0-3.06,2.49-5.55,5.55-5.55s5.54,2.49,5.54,5.55c0,.63-.11,1.25-.31,1.84-.19.53.08,1.1.61,1.28.521.189,1.083-.094,1.27-.61.17-.47.27-.95.34-1.44,2.06.34,3.77,1.81,4.39,3.86.1.32.35.57.67.67,2.36.71,3.94,2.84,3.94,5.3,0,3.06-2.49,5.55-5.55,5.55Z"/>
  <circle cx="25" cy="32" r="1"/>
</svg>