<?xml version="1.0" encoding="UTF-8"?>
<svg id="Outline" xmlns="http://www.w3.org/2000/svg" version="1.1" viewBox="0 0 64 64">
  <!-- Generator: Adobe Illustrator 29.5.1, SVG Export Plug-In . SVG Version: 2.1.0 Build 141)  -->
  <path d="M54.45,48.82c-.55-1.26-1.67-2.15-3-2.44-.41-1.93-2.13-3.38-4.18-3.38-.83,0-1.61.25-2.27.67v-2.67c0-1.65-1.35-3-3-3h-7.18c-.31-.85-.97-1.51-1.82-1.82v-3.18h5c.55,0,1-.45,1-1s-.45-1-1-1H14.55c-3.06,0-5.55-2.49-5.55-5.55,0-2.06,1.13-3.9,2.9-4.85.32.82.79,1.58,1.39,2.25.19.22.47.33.739.33.851,0,1.298-1.031.751-1.67-.92-1.01-1.42-2.33-1.42-3.69,0-3.06,2.49-5.55,5.55-5.55,2.35,0,4.45,1.49,5.23,3.7.18.52.75.79,1.28.61.52-.18.79-.76.61-1.28-.22-.61-.53-1.17-.89-1.7,1-.85,2.27-1.33,3.59-1.33.86,0,1.7.21,2.47.59-.13.54-.2,1.11-.2,1.69,0,.55.45,1,1,1s1-.45,1-1c0-3.06,2.49-5.55,5.55-5.55s5.54,2.49,5.54,5.55c0,.63-.11,1.25-.31,1.84-.19.53.09,1.1.611,1.28.518.188,1.083-.095,1.269-.61.17-.47.27-.95.34-1.44,2.06.34,3.77,1.81,4.39,3.86.1.32.35.57.67.67,2.36.71,3.94,2.84,3.94,5.3,0,3.06-2.49,5.55-5.55,5.55h-3.45c-.55,0-1,.45-1,1s.45,1,1,1h3.45c4.16,0,7.55-3.39,7.55-7.55,0-3.17-1.93-5.94-4.86-7.05-1-2.63-3.35-4.44-6.11-4.78-.46-3.72-3.64-6.62-7.48-6.62-2.88,0-5.38,1.61-6.65,3.98-.99-.46-2.07-.71-3.17-.71-1.82,0-3.55.67-4.92,1.84-1.34-1.15-3.06-1.84-4.9-1.84-4.16,0-7.55,3.39-7.55,7.55,0,.27.02.54.05.8-2.66,1.21-4.41,3.85-4.41,6.83,0,4.16,3.39,7.55,7.55,7.55h16.45v3.18c-.85.31-1.51.97-1.82,1.82h-7.18c-1.65,0-3,1.35-3,3v3.68c-.21-.03-.42-.04-.64-.04-.88,0-1.73.28-2.44.78-.71-.5-1.56-.78-2.47-.78-2.35,0-4.27,1.91-4.27,4.27,0,.03.01.07.01.1-1.33.74-2.19,2.14-2.19,3.71,0,2.36,1.92,4.28,4.28,4.28h17.44c1.33,0,2.5-.62,3.28-1.56.78.94,1.95,1.56,3.28,1.56h17.44c2.36,0,4.28-1.92,4.28-4.28,0-1.71-1-3.23-2.55-3.9ZM32,38c.55,0,1,.45,1,1s-.45,1-1,1-1-.45-1-1,.45-1,1-1ZM28.72,55H11.28c-1.26,0-2.28-1.02-2.28-2.28,0-.66.29-1.26.76-1.68.15.25.31.5.51.72.2.22.47.33.75.33.23,0,.47-.08.66-.25.41-.37.45-1.01.08-1.42s-.58-.95-.58-1.51c0-1.25,1.02-2.27,2.27-2.27.97,0,1.83.61,2.15,1.51.18.52.75.79,1.27.61.52-.18.8-.75.61-1.27-.06-.19-.14-.37-.23-.54.54-.3,1.21-.37,1.8-.19-.02.17-.05.34-.05.51,0,.56.45,1,1,1s1-.44,1-1c0-1.25,1.02-2.27,2.27-2.27,1.26,0,2.28,1.02,2.28,2.27v.01c-.01.25-.05.51-.13.75-.19.52.09,1.09.61,1.28.11.03.22.05.33.05.41,0,.8-.25.94-.66.03-.09.05-.18.07-.26.63.24,1.14.76,1.35,1.45.1.32.35.57.66.66.97.29,1.62,1.17,1.62,2.17,0,1.26-1.02,2.28-2.28,2.28ZM32.01,49.99c-.42-.5-.94-.9-1.56-1.17-.55-1.26-1.67-2.15-3-2.44-.41-1.93-2.13-3.38-4.18-3.38-.83,0-1.61.25-2.27.67v-2.67c0-.55.45-1,1-1h7.18c.42,1.16,1.52,2,2.82,2s2.4-.84,2.82-2h7.18c.55,0,1,.45,1,1v3.68c-.21-.03-.42-.04-.64-.04-.88,0-1.73.28-2.44.78-.71-.5-1.56-.78-2.47-.78-2.35,0-4.27,1.91-4.27,4.27,0,.03.01.07.01.1-.46.25-.85.59-1.18.98ZM52.72,55h-17.44c-1.26,0-2.28-1.02-2.28-2.28,0-.66.29-1.26.76-1.68.15.25.31.5.51.72.2.22.47.33.75.33.23,0,.47-.08.66-.25.41-.37.45-1.01.08-1.42s-.58-.95-.58-1.51c0-1.25,1.02-2.27,2.27-2.27.97,0,1.83.61,2.15,1.51.18.52.75.79,1.27.61.52-.18.8-.75.61-1.27-.06-.19-.14-.37-.23-.54.54-.3,1.21-.37,1.8-.19-.02.17-.05.34-.05.51,0,.56.45,1,1,1s1-.44,1-1c0-1.25,1.02-2.27,2.27-2.27,1.26,0,2.28,1.02,2.28,2.27v.01c-.01.25-.05.51-.13.75-.19.52.09,1.09.61,1.28.11.03.22.05.33.05.41,0,.8-.25.94-.66.03-.09.05-.18.07-.26.63.24,1.14.76,1.35,1.45.1.32.35.57.66.66.97.29,1.62,1.17,1.62,2.17,0,1.26-1.02,2.28-2.28,2.28Z"/>
  <circle cx="42" cy="32" r="1"/>
</svg>