<?xml version="1.0" encoding="UTF-8"?>
<svg id="Outline" xmlns="http://www.w3.org/2000/svg" version="1.1" viewBox="0 0 64 64">
  <!-- Generator: Adobe Illustrator 29.5.1, SVG Export Plug-In . SVG Version: 2.1.0 Build 141)  -->
  <path d="M52.14,18.4c-1-2.63-3.35-4.44-6.11-4.78-.46-3.72-3.64-6.62-7.48-6.62-2.88,0-5.38,1.61-6.65,3.98-.99-.46-2.07-.71-3.17-.71-1.82,0-3.56.67-4.92,1.84-1.34-1.15-3.06-1.84-4.9-1.84-4.16,0-7.55,3.39-7.55,7.55,0,.27.02.54.05.8-2.66,1.21-4.41,3.85-4.41,6.83,0,4.16,3.39,7.55,7.55,7.55h1.45v3.48c0,9.59,6.47,18.02,15.74,20.49.09.02.17.03.26.03s.17-.01.26-.03c9.27-2.47,15.74-10.9,15.74-20.49v-3.48h1.45c4.16,0,7.55-3.39,7.55-7.55,0-3.17-1.93-5.94-4.86-7.05ZM46,36.48c0,8.6-5.74,16.16-14,18.48-8.26-2.32-14-9.88-14-18.48v-7.6l14-1.87,14,1.87v7.6ZM24,21c0-.55.45-1,1-1s1,.45,1,1-.45,1-1,1-1-.45-1-1ZM38,21c0-.55.45-1,1-1s1,.45,1,1-.45,1-1,1-1-.45-1-1ZM49.45,31h-1.45v-3c0-.5-.37-.92-.87-.99l-7.13-.95v-2.24c1.16-.42,2-1.52,2-2.82,0-1.65-1.35-3-3-3s-3,1.35-3,3c0,1.3.84,2.4,2,2.82v1.97l-5.87-.78c-.09-.01-.17-.01-.26,0l-5.87.78v-1.97c1.16-.42,2-1.52,2-2.82,0-1.65-1.35-3-3-3s-3,1.35-3,3c0,1.3.84,2.4,2,2.82v2.24l-7.13.95c-.5.07-.87.49-.87.99v3h-1.45c-3.06,0-5.55-2.49-5.55-5.55,0-2.06,1.13-3.9,2.9-4.85.32.82.79,1.58,1.39,2.25.19.22.47.33.74.33.24,0,.48-.08.67-.25.41-.37.44-1,.08-1.42-.91-1.01-1.42-2.32-1.42-3.69,0-3.06,2.49-5.55,5.55-5.55,2.35,0,4.45,1.49,5.23,3.7.18.52.76.79,1.28.61.52-.18.79-.76.6-1.28-.21-.61-.52-1.17-.88-1.7,1-.85,2.27-1.33,3.59-1.33.86,0,1.7.21,2.47.59-.13.54-.2,1.11-.2,1.69,0,.55.45,1,1,1s1-.45,1-1c0-3.06,2.49-5.55,5.55-5.55s5.54,2.49,5.54,5.55c0,.63-.11,1.25-.31,1.84-.19.53.08,1.1.61,1.28.11.04.22.06.33.06.41,0,.8-.26.94-.67.17-.47.27-.95.34-1.44,2.06.34,3.77,1.81,4.39,3.86.1.32.35.57.67.67,2.36.71,3.94,2.84,3.94,5.3,0,3.06-2.49,5.55-5.55,5.55Z"/>
  <path d="M43.131,30.509l-11-1.46c-.087-.012-.176-.012-.263,0l-11,1.46c-.497.065-.869.49-.869.991v4.98c0,7.378,4.693,13.923,11.679,16.287.104.035.212.053.321.053s.216-.018.32-.053c5.657-1.914,9.974-6.73,11.266-12.571.119-.539-.221-1.073-.761-1.192-.539-.116-1.073.221-1.192.761-1.117,5.05-4.793,9.234-9.633,10.996-5.996-2.179-10-7.874-10-14.28v-4.104l10-1.327,10.077,1.338c.151.36.507.613.923.613.552,0,1-.447,1-1v-.5c0-.501-.372-.926-.869-.991Z"/>
  <path d="M39.07,38.93c.875,0,1.326-1.088.707-1.707-2.079-2.078-4.84-3.223-7.777-3.223s-5.698,1.145-7.777,3.223c-.391.391-.391,1.023,0,1.414s1.023.391,1.414,0c1.701-1.7,3.96-2.637,6.363-2.637s4.662.937,6.363,2.637c.195.195.451.293.707.293Z"/>
  <path d="M36.24,41.76c.869,0,1.325-1.084.71-1.704-1.314-1.325-3.072-2.056-4.951-2.056s-3.637.73-4.951,2.056c-.389.393-.386,1.025.006,1.414s1.024.386,1.415-.006c.935-.944,2.189-1.464,3.53-1.464s2.595.52,3.53,1.464c.196.197.453.296.71.296Z"/>
  <path d="M29.874,42.893c-.385.396-.377,1.028.019,1.414s1.029.376,1.414-.02c.361-.369,1.026-.369,1.388,0,.196.201.455.302.715.303.867,0,1.32-1.079.717-1.697-1.12-1.152-3.133-1.152-4.253,0Z"/>
  <circle cx="43" cy="36" r="1"/>
</svg>