<?xml version="1.0" encoding="UTF-8"?>
<svg id="Outline" xmlns="http://www.w3.org/2000/svg" version="1.1" viewBox="0 0 64 64">
  <!-- Generator: Adobe Illustrator 29.5.1, SVG Export Plug-In . SVG Version: 2.1.0 Build 141)  -->
  <path d="M57,25.45c0-3.17-1.93-5.94-4.86-7.05-1-2.63-3.35-4.44-6.11-4.78-.46-3.72-3.64-6.62-7.48-6.62-2.88,0-5.38,1.61-6.65,3.98-.99-.46-2.07-.71-3.17-.71-1.82,0-3.55.67-4.92,1.84-1.34-1.15-3.06-1.84-4.9-1.84-4.16,0-7.55,3.39-7.55,7.55,0,.27.02.54.05.8-2.66,1.21-4.41,3.85-4.41,6.83,0,4.16,3.39,7.55,7.55,7.55h1.89l-.39,6.17c-1.19.4-2.05,1.51-2.05,2.83v1c-1.65,0-3,1.35-3,3v4c0,1.65,1.35,3,3,3h1v3c0,.55.45,1,1,1h4c.38,0,.72-.21.89-.55l1.73-3.45h18.76l1.73,3.45c.17.34.51.55.89.55h4c.55,0,1-.45,1-1v-3h1c1.65,0,3-1.35,3-3v-4c0-1.65-1.35-3-3-3v-1c0-1.32-.86-2.43-2.05-2.83l-.39-6.17h1.89c4.16,0,7.55-3.39,7.55-7.55ZM16,42c0-.55.45-1,1-1h6c.55,0,1,.45,1,1v1h-8v-1ZM18.06,39l.88-14h2.12l.88,14h-3.88ZM19.38,55h-2.38v-2h3.38l-1,2ZM47,55h-2.38l-1-2h3.38v2ZM50,45c.55,0,1,.45,1,1v4c0,.55-.45,1-1,1H14c-.55,0-1-.45-1-1v-4c0-.55.45-1,1-1h13c.55,0,1-.45,1-1s-.45-1-1-1h-1v-1c0-1.32-.86-2.43-2.05-2.83l-.39-6.17h16.88l-.39,6.17c-1.19.4-2.05,1.51-2.05,2.83v1h-3c-.55,0-1,.45-1,1s.45,1,1,1h15ZM48,42v1h-8v-1c0-.55.45-1,1-1h6c.55,0,1,.45,1,1ZM42.06,39l.88-14h2.12l.88,14h-3.88ZM47.44,31l-.44-7.06c-.04-.53-.47-.94-1-.94h-4c-.53,0-.96.41-1,.94l-.44,7.06h-17.12l-.44-7.06c-.04-.53-.47-.94-1-.94h-4c-.53,0-.96.41-1,.94l-.44,7.06h-2.01c-3.06,0-5.55-2.49-5.55-5.55,0-2.06,1.13-3.9,2.9-4.85.32.82.79,1.58,1.39,2.25.19.22.47.33.739.33.859,0,1.301-1.028.751-1.67-.92-1.01-1.42-2.33-1.42-3.69,0-3.06,2.49-5.55,5.55-5.55,2.35,0,4.45,1.49,5.23,3.7.18.52.75.79,1.28.61.52-.18.79-.76.61-1.28-.22-.61-.53-1.17-.89-1.7,1-.85,2.27-1.33,3.59-1.33.86,0,1.7.21,2.47.59-.13.54-.2,1.11-.2,1.69,0,.55.45,1,1,1s1-.45,1-1c0-3.06,2.49-5.55,5.55-5.55s5.54,2.49,5.54,5.55c0,.63-.11,1.25-.31,1.84-.19.53.09,1.1.61,1.28.486.168,1.084-.066,1.27-.61.17-.47.27-.95.34-1.44,2.06.34,3.77,1.81,4.39,3.86.1.32.35.57.67.67,2.36.71,3.94,2.84,3.94,5.3,0,3.06-2.49,5.55-5.55,5.55h-2.01Z"/>
  <path d="M18,47h-2c-.553,0-1,.447-1,1s.447,1,1,1h2c.553,0,1-.447,1-1s-.447-1-1-1Z"/>
  <path d="M24,47h-2c-.553,0-1,.447-1,1s.447,1,1,1h2c.553,0,1-.447,1-1s-.447-1-1-1Z"/>
  <circle cx="31" cy="44" r="1"/>
</svg>