<?xml version="1.0" encoding="UTF-8"?>
<svg id="Outline" xmlns="http://www.w3.org/2000/svg" version="1.1" viewBox="0 0 64 64">
  <!-- Generator: Adobe Illustrator 29.5.1, SVG Export Plug-In . SVG Version: 2.1.0 Build 141)  -->
  <path d="M52.137,18.402c-1-2.629-3.345-4.441-6.109-4.781-.458-3.726-3.636-6.621-7.483-6.621-2.871,0-5.371,1.612-6.646,3.979-.99-.462-2.067-.706-3.172-.706-1.814,0-3.553.665-4.914,1.839-1.34-1.149-3.06-1.839-4.904-1.839-4.161,0-7.545,3.385-7.545,7.546,0,.27.018.537.047.803-2.664,1.214-4.411,3.85-4.411,6.829,0,2.664,1.351,5.066,3.615,6.427.472.283,1.09.127,1.372-.342.285-.474.131-1.088-.342-1.373-1.656-.995-2.645-2.757-2.645-4.712,0-2.059,1.134-3.898,2.898-4.851.325.819.79,1.582,1.388,2.25.197.22.47.333.744.333.846,0,1.308-1.039.745-1.667-.91-1.017-1.412-2.329-1.412-3.696,0-3.058,2.488-5.546,5.545-5.546,2.347,0,4.449,1.486,5.23,3.697.184.521.755.792,1.276.61.521-.185.794-.756.61-1.276-.217-.615-.526-1.177-.881-1.701.997-.849,2.264-1.33,3.584-1.33.865,0,1.704.207,2.469.59-.124.542-.196,1.104-.196,1.683,0,.553.448,1,1,1s1-.447,1-1c0-3.058,2.488-5.546,5.545-5.546s5.545,2.488,5.545,5.552c0,.632-.106,1.252-.315,1.842-.184.521.089,1.092.61,1.276.516.183,1.092-.091,1.275-.61.165-.466.269-.948.339-1.437,2.059.337,3.767,1.802,4.394,3.858.097.318.347.568.666.665,2.357.715,3.94,2.847,3.94,5.303,0,3.061-2.49,5.55-5.55,5.55h-5.631c-.957-5.666-5.885-10-11.819-10s-10.863,4.334-11.819,10h-1.181c-.552,0-1,.447-1,1s.448,1,1,1h1v5.749c-2.481,1.938-4,4.472-4,7.251,0,6.065,7.178,11,16,11s16-4.935,16-11c0-2.779-1.519-5.313-4-7.251v-5.749h5.45c4.163,0,7.55-3.387,7.55-7.55,0-3.168-1.934-5.938-4.863-7.048ZM46,46c0,4.963-6.28,9-14,9s-14-4.037-14-9,6.28-9,14-9,14,4.037,14,9ZM38,35.81c-1.855-.518-3.878-.81-6-.81s-4.145.292-6,.81v-2.81c0-3.309,2.691-6,6-6s6,2.691,6,6v2.81ZM40,36.488v-3.488c0-4.411-3.589-8-8-8s-8,3.589-8,8v3.488c-.701.28-1.371.591-2,.938v-4.427c0-5.514,4.486-10,10-10s10,4.486,10,10v4.427c-.629-.347-1.299-.659-2-.938Z"/>
  <path d="M32,40c-2.206,0-4,1.794-4,4,0,.92.31,1.787.881,2.495l-.862,4.309c-.059.294.017.599.207.83s.474.366.773.366h6c.3,0,.583-.135.773-.366s.266-.536.207-.83l-.862-4.309c.572-.708.881-1.575.881-2.495,0-2.206-1.794-4-4-4ZM33.058,46.387l.723,3.613h-3.561l.723-3.613c.068-.341-.045-.691-.299-.928-.415-.387-.644-.904-.644-1.459,0-1.103.897-2,2-2s2,.897,2,2c0,.555-.229,1.072-.644,1.459-.254.236-.367.587-.299.928Z"/>
  <circle cx="15" cy="32" r="1"/>
</svg>