<?xml version="1.0" encoding="UTF-8"?>
<svg id="Outline" xmlns="http://www.w3.org/2000/svg" version="1.1" viewBox="0 0 64 64">
  <!-- Generator: Adobe Illustrator 29.5.1, SVG Export Plug-In . SVG Version: 2.1.0 Build 141)  -->
  <path d="M44,51h-6c-.553,0-1,.448-1,1s.447,1,1,1h6c.553,0,1-.448,1-1s-.447-1-1-1Z"/>
  <circle cx="48" cy="52" r="1"/>
  <path d="M19.074,52c0,.552.447,1,1,1h6c.553,0,1-.448,1-1s-.447-1-1-1h-6c-.553,0-1,.448-1,1Z"/>
  <circle cx="16.074" cy="52" r="1"/>
  <path d="M54,35h-6v-2h1.45c4.16,0,7.55-3.39,7.55-7.55,0-3.17-1.93-5.94-4.86-7.05-1-2.63-3.35-4.44-6.11-4.78-.46-3.72-3.64-6.62-7.48-6.62-2.88,0-5.38,1.61-6.65,3.98-.99-.46-2.07-.71-3.17-.71-1.82,0-3.56.67-4.92,1.84-1.34-1.15-3.06-1.84-4.9-1.84-4.16,0-7.55,3.39-7.55,7.55,0,.27.02.54.05.8-2.66,1.22-4.41,3.85-4.41,6.83,0,4.16,3.39,7.55,7.55,7.55h1.45v2h-5.93c-1.65,0-3,1.35-3,3v4c0,1.65,1.35,3,3,3h5.93v2h-5.93c-1.65,0-3,1.35-3,3v4c0,1.65,1.35,3,3,3h18c1.66,0,3-1.35,3-3v-4c0-1.65-1.34-3-3-3h-6.07v-2h6.07c1.66,0,3-1.35,3-3v-4c0-1.65-1.34-3-3-3h-6.07v-2h2c.55,0,1-.45,1-1s-.45-1-1-1h-2v-2h1c.55,0,1-.45,1-1s-.45-1-1-1h-8c-.55,0-1,.45-1,1s.45,1,1,1h1v2h-1.45c-3.06,0-5.55-2.49-5.55-5.55,0-2.06,1.13-3.9,2.9-4.85.32.82.79,1.58,1.39,2.25.19.22.47.33.739.33.85,0,1.314-1.018.751-1.66-.91-1.02-1.42-2.34-1.42-3.7,0-3.06,2.49-5.55,5.55-5.55,2.35,0,4.45,1.49,5.23,3.7.18.52.75.79,1.28.61.52-.18.79-.76.6-1.28-.21-.61-.52-1.17-.88-1.7,1-.85,2.27-1.33,3.59-1.33.86,0,1.7.21,2.47.59-.13.54-.2,1.11-.2,1.69,0,.55.45,1,1,1s1-.45,1-1c0-3.06,2.49-5.55,5.55-5.55s5.54,2.49,5.54,5.55c0,.63-.11,1.25-.31,1.84-.19.53.09,1.1.61,1.28.514.187,1.093-.092,1.27-.61.17-.47.27-.95.34-1.44,2.06.34,3.77,1.81,4.39,3.86.1.32.35.57.67.67,2.36.71,3.94,2.84,3.94,5.3,0,3.06-2.49,5.55-5.55,5.55h-1.45v-2h1c.55,0,1-.45,1-1s-.45-1-1-1h-8c-.55,0-1,.45-1,1s.45,1,1,1h1v2h-10c-.55,0-1,.45-1,1s.45,1,1,1h10v2h-6c-1.65,0-3,1.35-3,3v4c0,1.65,1.35,3,3,3h6v2h-6c-1.65,0-3,1.35-3,3v4c0,1.65,1.35,3,3,3h18c1.65,0,3-1.35,3-3v-4c0-1.65-1.35-3-3-3h-6v-2h6c1.65,0,3-1.35,3-3v-4c0-1.65-1.35-3-3-3ZM28.07,49c.56,0,1,.45,1,1v4c0,.55-.44,1-1,1H10.07c-.55,0-1-.45-1-1v-4c0-.55.45-1,1-1h18ZM18,47v-2h2v2h-2ZM18,29h2v6h-2v-6ZM28.07,37c.56,0,1,.45,1,1v4c0,.55-.44,1-1,1H10.07c-.55,0-1-.45-1-1v-4c0-.55.45-1,1-1h18ZM44,29h2v6h-2v-6ZM54,49c.55,0,1,.45,1,1v4c0,.55-.45,1-1,1h-18c-.55,0-1-.45-1-1v-4c0-.55.45-1,1-1h18ZM44,47v-2h2v2h-2ZM55,42c0,.55-.45,1-1,1h-18c-.55,0-1-.45-1-1v-4c0-.55.45-1,1-1h18c.55,0,1,.45,1,1v4Z"/>
  <path d="M44,39h-6c-.553,0-1,.448-1,1s.447,1,1,1h6c.553,0,1-.448,1-1s-.447-1-1-1Z"/>
  <circle cx="48" cy="40" r="1"/>
  <path d="M19.074,40c0,.552.447,1,1,1h6c.553,0,1-.448,1-1s-.447-1-1-1h-6c-.553,0-1,.448-1,1Z"/>
  <circle cx="16.074" cy="40" r="1"/>
  <circle cx="28" cy="32" r="1"/>
</svg>