<?xml version="1.0" encoding="UTF-8"?>
<svg id="Outline" xmlns="http://www.w3.org/2000/svg" version="1.1" viewBox="0 0 64 64">
  <!-- Generator: Adobe Illustrator 29.5.1, SVG Export Plug-In . SVG Version: 2.1.0 Build 141)  -->
  <path d="M52.137,18.402c-1-2.629-3.345-4.441-6.109-4.781-.458-3.726-3.636-6.621-7.483-6.621-2.871,0-5.371,1.612-6.646,3.979-.99-.462-2.067-.706-3.172-.706-1.814,0-3.553.665-4.914,1.839-1.34-1.149-3.06-1.839-4.904-1.839-4.161,0-7.545,3.385-7.545,7.546,0,.27.018.537.047.803-2.664,1.214-4.411,3.85-4.411,6.829,0,4.163,3.387,7.55,7.55,7.55h5.036l.397.397c.39.39,1.022.391,1.413,0,2.846-2.836,6.611-4.398,10.604-4.398s7.758,1.562,10.604,4.398c.195.194.451.292.706.292s.512-.098.707-.293l.397-.397h5.036c4.163,0,7.55-3.387,7.55-7.55,0-3.168-1.934-5.938-4.863-7.048ZM49.45,31h-3.036l.423-.423c.391-.391.391-1.023,0-1.414-1.974-1.974-4.262-3.514-6.803-4.577-1.206-.501-2.501-.896-3.851-1.176-.542-.108-1.07.237-1.182.777-.112.54.236,1.069.777,1.182,1.226.253,2.4.611,3.487,1.063,1.993.834,3.817,1.994,5.434,3.455l-1.402,1.403-.004.004-.003.003c-3.125-2.779-7.096-4.298-11.289-4.298s-8.164,1.519-11.289,4.298l-.003-.003-.004-.004-1.403-1.404c2.522-2.281,5.586-3.837,8.919-4.518.541-.11.89-.639.78-1.18-.111-.541-.642-.892-1.18-.779-4.045.826-7.73,2.815-10.658,5.754-.389.391-.389,1.023.001,1.413l.423.423h-3.036c-3.06,0-5.55-2.489-5.55-5.55,0-2.059,1.134-3.898,2.898-4.851.325.819.79,1.582,1.388,2.25.197.221.471.333.745.333.237,0,.476-.084.667-.255.412-.369.446-1.001.078-1.412-.91-1.017-1.412-2.329-1.412-3.696,0-3.058,2.488-5.546,5.545-5.546,2.347,0,4.449,1.486,5.23,3.697.184.521.756.791,1.276.61.521-.185.794-.756.61-1.276-.217-.615-.526-1.177-.881-1.701.997-.849,2.264-1.33,3.584-1.33.865,0,1.704.207,2.469.59-.124.542-.196,1.104-.196,1.683,0,.553.448,1,1,1s1-.447,1-1c0-3.058,2.488-5.546,5.545-5.546s5.545,2.488,5.545,5.545c0,.002,0,.003,0,.005,0,0,0,.001,0,.002,0,.632-.106,1.252-.315,1.842-.184.521.089,1.092.61,1.275.11.039.223.058.333.058.412,0,.798-.256.943-.667.165-.466.269-.948.339-1.437,2.059.337,3.767,1.802,4.394,3.858.097.318.347.568.666.665,2.357.715,3.94,2.847,3.94,5.303,0,3.061-2.49,5.55-5.55,5.55Z"/>
  <path d="M32,31c-3.471,0-6.735,1.353-9.191,3.809-.391.391-.391,1.023,0,1.414l2.828,2.828c.391.391,1.023.391,1.414,0,1.323-1.322,3.081-2.051,4.949-2.051s3.626.729,4.949,2.051c.195.195.451.293.707.293s.512-.098.707-.293l2.828-2.828c.391-.391.391-1.023,0-1.414-2.456-2.456-5.72-3.809-9.191-3.809ZM37.617,36.968c-1.59-1.275-3.551-1.968-5.617-1.968s-4.027.692-5.617,1.968l-1.421-1.421c1.973-1.648,4.437-2.547,7.038-2.547s5.065.898,7.038,2.547l-1.421,1.421Z"/>
  <path d="M35.107,40.083c-1.204-.955-2.769-1.302-4.293-.945-1.789.416-3.226,1.837-3.662,3.621-.488,1.995.249,4.023,1.848,5.222v6.02c0,1.654,1.346,3,3,3s3-1.346,3-3v-6.021c1.246-.939,2-2.416,2-3.979,0-1.534-.69-2.962-1.893-3.917ZM33.497,46.581c-.308.18-.497.509-.497.864v6.555c0,.552-.449,1-1,1s-1-.448-1-1v-6.555c0-.356-.189-.686-.497-.864-1.185-.689-1.737-2.003-1.409-3.348.319-1.307,1.581-2.234,2.911-2.234,1.635,0,2.994,1.369,2.994,3.001,0,1.068-.562,2.033-1.503,2.581Z"/>
  <circle cx="32" cy="24" r="1"/>
</svg>